<svg xmlns="http://www.w3.org/2000/svg" width="34.098" height="23.951" viewBox="0 0 34.098 23.951"><defs><style>.a{fill:#aab818;}</style></defs><g transform="translate(-82.77 -10)"><g transform="translate(12.222 23)"><path class="a" d="M98.018,145.057l-5.785-6.6a.994.994,0,0,0-.747-.339H86.67v-4.078a.993.993,0,0,0-.993-.993H65.16a.993.993,0,0,0-.993.993v19.2a.993.993,0,0,0,.993.993h2.073a3.757,3.757,0,0,0,7.247,0H87.735a3.757,3.757,0,0,0,7.247,0h2.289a.993.993,0,0,0,.993-.993v-7.525A.994.994,0,0,0,98.018,145.057Zm-27.162,9.951a1.771,1.771,0,1,1,1.771-1.771A1.773,1.773,0,0,1,70.857,155.008Zm3.623-2.764a3.757,3.757,0,0,0-7.247,0h-1.08V135.03h18.53v17.214Zm16.878,2.764a1.771,1.771,0,1,1,1.771-1.771A1.773,1.773,0,0,1,91.358,155.008Zm4.919-2.764h-1.3a3.757,3.757,0,0,0-7.247,0H86.669V140.1h4.366l5.242,5.984v6.158Z" transform="translate(6.381 -146.043)"/></g></g></svg>