<svg xmlns="http://www.w3.org/2000/svg" width="103.737" height="38" viewBox="0 0 103.737 38"><defs><style>.a{fill:#b9bf15;}.b{fill:#a50852;}.c{fill:#36abc3;}</style></defs><g transform="translate(0 0)"><path class="a" d="M27.615,36.2a2.422,2.422,0,0,1,2.457,1.387,2.5,2.5,0,0,1,.2,1.03,6.475,6.475,0,0,1-.2,1.426c0,.079.079.159.238.159h.713c2.417,0,5.112-1.109,8-3.328a2.012,2.012,0,0,1,.991-.357h.159a.708.708,0,0,1,.436.674c-.04.4-.713.991-2.021,1.862a14.982,14.982,0,0,1-8.48,2.655,2.274,2.274,0,0,0-.475-.04c-.159,0-.436.277-.792.872a4.285,4.285,0,0,1-3.289,1.783h-.436A2.209,2.209,0,0,1,22.94,42.54a4.307,4.307,0,0,1-.04-.713V41.47c0-1.942,1.03-3.606,3.051-4.953A4.545,4.545,0,0,1,27.615,36.2Zm-3.368,5.31A1.319,1.319,0,0,0,25,42.857a.852.852,0,0,0,.4.079c.792,0,1.545-.555,2.338-1.625l.04-.159A7.91,7.91,0,0,0,26.7,40.6a3.005,3.005,0,0,1-1.347-1.862l.079.04H25.4c-.238.119-.555.753-1.03,1.942C24.366,40.717,24.326,40.995,24.247,41.51Zm2.694-2.932c0,.357.317.753.951,1.109a1.436,1.436,0,0,0,.515.2h.04a9.528,9.528,0,0,0,.238-1.189c0-.674-.277-1.03-.832-1.03A.852.852,0,0,0,26.942,38.577Z" transform="translate(-13.826 -21.856)"/><path class="a" d="M60.215,36.2a2.422,2.422,0,0,1,2.457,1.387,2.5,2.5,0,0,1,.2,1.03,6.475,6.475,0,0,1-.2,1.426c0,.079.079.159.238.159h.713c2.417,0,5.112-1.109,8-3.328a2.012,2.012,0,0,1,.991-.357h.159a.708.708,0,0,1,.436.674c-.04.4-.713.991-2.021,1.862a14.982,14.982,0,0,1-8.48,2.655,2.274,2.274,0,0,0-.475-.04c-.158,0-.436.277-.792.872a4.285,4.285,0,0,1-3.289,1.783h-.436A2.209,2.209,0,0,1,55.54,42.54a4.307,4.307,0,0,1-.04-.713V41.47c0-1.942,1.03-3.606,3.051-4.953A4.852,4.852,0,0,1,60.215,36.2Zm-3.328,5.31a1.319,1.319,0,0,0,.753,1.347.852.852,0,0,0,.4.079c.792,0,1.545-.555,2.338-1.625l.04-.159a7.91,7.91,0,0,0-1.07-.555A3.005,3.005,0,0,1,58,38.736l.079.04h-.04c-.238.119-.555.753-1.03,1.942C57.006,40.717,56.966,40.995,56.887,41.51Zm2.694-2.932c0,.357.317.753.951,1.109a1.436,1.436,0,0,0,.515.2h.04a9.529,9.529,0,0,0,.238-1.189c0-.674-.277-1.03-.832-1.03A.852.852,0,0,0,59.581,38.577Z" transform="translate(-33.508 -21.856)"/><path class="a" d="M104.186,0c.951,0,1.387.475,1.387,1.426.04,0,.04.119.04.4-.119,1.585-.238,2.734-.317,3.408,0-.158,0-.277.04-.277,0,1.545-.911,4.913-2.734,10.144a9.766,9.766,0,0,0-1.03,2.338v.079c.475,1.308,1.7,1.981,3.645,1.981h.436a11.761,11.761,0,0,0,8.48-3.923c.4-.713.753-1.03,1.109-1.03h.04c.317,0,.594.238.753.674-.2.872-1.545,2.179-3.962,3.962a15.288,15.288,0,0,1-5.706,1.664c-.159,0-.555.04-1.228.079a10.639,10.639,0,0,1-3.011-.713,5.955,5.955,0,0,1-1.466-1.268c.119.04.079.2-.159.475a7.368,7.368,0,0,1-4.4,2.893,3.269,3.269,0,0,1-1.585.238,4.342,4.342,0,0,1-4.478-3.17,1.486,1.486,0,0,1-.04-.4v-.515a6.91,6.91,0,0,1,2.3-4.438,7.5,7.5,0,0,1,4.081-1.545l1.189.04c.515.119,1.228.317,2.219.594-.753.634-1.07.634-.911-.04a4.08,4.08,0,0,0-.04-.515A21,21,0,0,1,100.3,5.508L101.769,2.5A7.39,7.39,0,0,1,103.512.119,2.673,2.673,0,0,1,104.186,0ZM91.625,18.465a2.8,2.8,0,0,0,2.1,2.734c.317.04.555.079.713.079a6.92,6.92,0,0,0,4.953-2.893,2.78,2.78,0,0,0,.357-.911,20.044,20.044,0,0,1-.713-3.091s-.277-.04-.872-.119a2.028,2.028,0,0,0-1.109-.317,5.531,5.531,0,0,0-5.31,3.606A5.659,5.659,0,0,0,91.625,18.465ZM100.58,10.9c0-.158,0-.277.04-.277,0,.277-.04,1.03-.159,2.259a24.217,24.217,0,0,0,.277,2.536c.079,0,.158-.2.277-.634a57.294,57.294,0,0,0,2.774-9.034l.238-3.962c-.04-.119,0-.158.04-.158-.277.079-.991,1.426-2.14,4A22.929,22.929,0,0,0,100.58,10.9Z" transform="translate(-54.338 0)"/><path class="a" d="M9.034,7.879c.713,0,1.07.475,1.07,1.387V9.5A4.646,4.646,0,0,1,9.233,12.4c0,.4-.832,1.466-2.457,3.13A24.448,24.448,0,0,1,4.438,17.35a3.818,3.818,0,0,0-.832,1.981c0,.357,1.743.634,5.191.911h.911a7.909,7.909,0,0,0,2.774-.792.791.791,0,0,1,.357-.079c.674,0,.991.238.991.713,0,.515-1.189.991-3.527,1.506a5.319,5.319,0,0,1-.832.04c-.872,0-2.259-.079-4.121-.277H5.27v-.119A8.234,8.234,0,0,0,6.221,23.1,26.567,26.567,0,0,1,7.331,27.85v.317l.119.555h.079l-.119-.277c.079.991.079,1.823.079,2.457v.277A18.014,18.014,0,0,1,6.5,36.013a4.089,4.089,0,0,1-2.417,2.259,1.641,1.641,0,0,0-.4.04c-1.506,0-2.576-1.426-3.249-4.319a15.844,15.844,0,0,1-.317-2.377v-.436a5.861,5.861,0,0,1,.2-1.268,2.437,2.437,0,0,1-.04-.515v-.158a50.1,50.1,0,0,1,1.109-7.885,19.718,19.718,0,0,0,.674-2.813v.079a5,5,0,0,1-1.466.357H.515C.4,18.974.2,18.816,0,18.538c0-.436.436-.792,1.347-1.109a2.787,2.787,0,0,0,1.664-1.268,28.91,28.91,0,0,1,3.21-6.181C7.093,8.513,7.965,7.8,8.757,7.8h.277v.079Zm-6.1,13.116c-.158,0-.515,2.457-1.109,7.37a6.291,6.291,0,0,1-.158,1.743c0-.2.04-.277.079-.277l-.079.872v.238c0,.158.04.475.079.991H1.664a15.71,15.71,0,0,0,.872,3.487c.515.951.872,1.426,1.07,1.466h.158q.535,0,1.426-1.664a12.385,12.385,0,0,0,.634-2.932c0,.158,0,.277-.04.277a1.509,1.509,0,0,1,.04-.515c.04-.832.04-1.387.04-1.664s0-.832-.04-1.7a1.509,1.509,0,0,1-.04-.515h0a18.3,18.3,0,0,0-.713-3.725q-1.248-2.972-2.14-3.447ZM8.559,9.425a5.939,5.939,0,0,0-1.387,1.942,19.4,19.4,0,0,0-2.179,3.962.41.41,0,0,0-.158-.04,11.326,11.326,0,0,0,2.259-2.3A6.161,6.161,0,0,0,8.519,9.464C8.559,9.425,8.559,9.385,8.559,9.425Z" transform="translate(0 -4.709)"/><path class="a" d="M9.034,7.879c.713,0,1.07.475,1.07,1.387V9.5A4.646,4.646,0,0,1,9.233,12.4c0,.4-.832,1.466-2.457,3.13A24.448,24.448,0,0,1,4.438,17.35a3.818,3.818,0,0,0-.832,1.981c0,.357,1.743.634,5.191.911h.911a7.909,7.909,0,0,0,2.774-.792.791.791,0,0,1,.357-.079c.674,0,.991.238.991.713,0,.515-1.189.991-3.527,1.506a5.319,5.319,0,0,1-.832.04c-.872,0-2.259-.079-4.121-.277H5.27v-.119A8.234,8.234,0,0,0,6.221,23.1,26.567,26.567,0,0,1,7.331,27.85v.317l.119.555h.079l-.119-.277c.079.991.079,1.823.079,2.457v.277A18.014,18.014,0,0,1,6.5,36.013a4.089,4.089,0,0,1-2.417,2.259,1.641,1.641,0,0,0-.4.04c-1.506,0-2.576-1.426-3.249-4.319a15.844,15.844,0,0,1-.317-2.377v-.436a5.861,5.861,0,0,1,.2-1.268,2.437,2.437,0,0,1-.04-.515v-.158a50.1,50.1,0,0,1,1.109-7.885,19.718,19.718,0,0,0,.674-2.813v.079a5,5,0,0,1-1.466.357H.515C.4,18.974.2,18.816,0,18.538c0-.436.436-.792,1.347-1.109a2.787,2.787,0,0,0,1.664-1.268,28.91,28.91,0,0,1,3.21-6.181C7.093,8.513,7.965,7.8,8.757,7.8h.277v.079Zm-6.1,13.116c-.158,0-.515,2.457-1.109,7.37a6.291,6.291,0,0,1-.158,1.743c0-.2.04-.277.079-.277l-.079.872v.238c0,.158.04.475.079.991H1.664a15.71,15.71,0,0,0,.872,3.487c.515.951.872,1.426,1.07,1.466h.158q.535,0,1.426-1.664a12.385,12.385,0,0,0,.634-2.932c0,.158,0,.277-.04.277a1.509,1.509,0,0,1,.04-.515c.04-.832.04-1.387.04-1.664s0-.832-.04-1.7a1.509,1.509,0,0,1-.04-.515h0a18.3,18.3,0,0,0-.713-3.725q-1.248-2.972-2.14-3.447ZM8.559,9.425a5.939,5.939,0,0,0-1.387,1.942,19.4,19.4,0,0,0-2.179,3.962.41.41,0,0,0-.158-.04,11.326,11.326,0,0,0,2.259-2.3A6.161,6.161,0,0,0,8.519,9.464C8.559,9.425,8.559,9.385,8.559,9.425Z" transform="translate(0 -4.709)"/></g><g transform="translate(53.969 13.631)"><path class="b" d="M143.412,34.4h.119a.949.949,0,0,1,.555.951v.04c0,1.308-.792,3.844-2.377,7.648a42.757,42.757,0,0,1-3.566,6.221,1.627,1.627,0,0,0-.515.951v.119a3.481,3.481,0,0,0,.713,1.625,2.313,2.313,0,0,0,1.585.713h.475a7.574,7.574,0,0,0,2.774-1.07q1.6-1.426,2.259-2.14c.317-.357.555-.555.792-.555h.119a.621.621,0,0,1,.436.555c-.079.436-.991,1.347-2.694,2.774A6.79,6.79,0,0,1,140,53.7c-1.823,0-3.011-.991-3.645-3.011-.079-.357-.119-.674-.158-.911a11.427,11.427,0,0,1,.911-4.319,5.362,5.362,0,0,1,.594-1.585,33.7,33.7,0,0,1,2.694-6.142,13.88,13.88,0,0,1,1.149-1.823,5.686,5.686,0,0,0,.555-.872A1.869,1.869,0,0,1,143.412,34.4Zm-5.825,13.591a.806.806,0,0,1,.04.2l-.04.04h-.079a25.782,25.782,0,0,0,1.585-2.536,45.534,45.534,0,0,0,2.893-6.5,16.576,16.576,0,0,0,.713-2.853c-.04-.2-.04-.277-.04-.2h.2c-.2,0-.832,1.07-1.9,3.17a50.4,50.4,0,0,0-2.853,6.934A17.013,17.013,0,0,0,137.587,47.991Z" transform="translate(-136.2 -34.4)"/><path class="b" d="M157.264,70.3a1.8,1.8,0,0,1,1.9,1.07,2.069,2.069,0,0,1,.158.832,3.752,3.752,0,0,1-.158,1.109c0,.079.04.119.158.119h.555c1.9,0,4-.872,6.261-2.615a1.469,1.469,0,0,1,.792-.277h.119a.586.586,0,0,1,.357.515c-.04.317-.555.792-1.585,1.466a11.86,11.86,0,0,1-6.657,2.06,1.487,1.487,0,0,0-.4-.04c-.119,0-.317.238-.634.674A3.279,3.279,0,0,1,155.56,76.6h-.317a1.745,1.745,0,0,1-1.7-1.426,2.437,2.437,0,0,1-.04-.555v-.2a4.6,4.6,0,0,1,2.377-3.883A5.6,5.6,0,0,1,157.264,70.3Zm-2.615,4.2a1,1,0,0,0,.594,1.03.681.681,0,0,0,.317.04,2.478,2.478,0,0,0,1.823-1.268v-.119s-.277-.159-.832-.436a2.438,2.438,0,0,1-1.07-1.466l.079.04h-.04a3.959,3.959,0,0,0-.792,1.545A4.052,4.052,0,0,1,154.649,74.5Zm2.14-2.338c0,.277.238.594.753.872a.864.864,0,0,0,.4.159h.04a9.176,9.176,0,0,0,.158-.911c0-.555-.2-.792-.634-.792C157.027,71.489,156.789,71.726,156.789,72.162Z" transform="translate(-146.645 -56.075)"/><path class="b" d="M204.46,70.779c.357.079.555.277.555.594,0,.357-1.426,1.189-4.24,2.457a13.405,13.405,0,0,1-4.755,1.109c-2.219,0-3.566-.277-4.042-.872a.49.49,0,0,1-.119-.079,10.888,10.888,0,0,0-.357,1.149c-1.347,2.972-2.219,4.517-2.615,4.715a1.969,1.969,0,0,1-1.506.832h-.158c-.753,0-1.189-.792-1.268-2.338a19.077,19.077,0,0,0-.555-3.685c-.515-1.308-.991-2.06-1.466-2.3a1.468,1.468,0,0,1-.634-.555v-.238a.546.546,0,0,1,.515-.357h.238a3.247,3.247,0,0,1,1.942,1.545,6.087,6.087,0,0,1,.832,2.259,25.072,25.072,0,0,1,.436,2.615h-.04a10.528,10.528,0,0,0,.238,1.823h.04c.357-.079.832-.792,1.506-2.179a23.733,23.733,0,0,0,1.743-4.161c.317-.872.634-1.268.951-1.268h.158q.535,0,.951,1.189a1.219,1.219,0,0,0,.872.475,5.652,5.652,0,0,0,1.9.277h.2a13.088,13.088,0,0,0,4.993-1.347c2.14-1.149,3.249-1.743,3.328-1.743A.589.589,0,0,0,204.46,70.779Z" transform="translate(-164.637 -56.316)"/><path class="b" d="M233.955,63.6h.158c.872.119,1.347.475,1.347.991-.119.792-.832,1.585-2.1,2.417a24.816,24.816,0,0,1-2.813.951c-.04.04-.04.04-.04.079v.04a2.773,2.773,0,0,0,1.189,1.743,3.8,3.8,0,0,0,1.942.436h.317a9.18,9.18,0,0,0,6.657-3.091c.317-.555.594-.832.872-.832h.04c.277,0,.476.2.594.555q-.238,1.01-3.091,3.091a12.189,12.189,0,0,1-4.478,1.308c-.119,0-.436.04-.991.079a8.385,8.385,0,0,1-2.457-.594,6.162,6.162,0,0,1-1.545-1.7q-.178,0-.357-1.189a5.256,5.256,0,0,1,1.03-2.219,5.793,5.793,0,0,1,2.5-1.664A2.343,2.343,0,0,1,233.955,63.6Zm-3.13,3.13h-.079a6.106,6.106,0,0,0,1.942-.674c.911-.674,1.387-1.149,1.387-1.347,0-.04-.04-.079-.119-.079h-.079a5.121,5.121,0,0,0-2.694,1.545C230.983,66.493,230.825,66.651,230.825,66.73Z" transform="translate(-192.349 -52.03)"/></g><path class="c" d="M112.642,68.826a23.772,23.772,0,0,0,3.408-.832c1.347-.357,1.506-.515,1.743-.753.594-.594.991-1.783.4-2.377-1.387-1.387-3.17.4-3.17.4s.594-1.783,0-2.377-1.783-.594-2.774.4c-.792.792-.4,2.774-.4,2.774Z" transform="translate(-67.47 -37.72)"/></svg>