<svg xmlns="http://www.w3.org/2000/svg" width="165.116" height="94.786" viewBox="0 0 165.116 94.786"><defs><style>.a{fill:#545a5f;}.b,.c{fill:#aab718;}.b{stroke:#aab718;stroke-miterlimit:10;stroke-width:0.25px;}</style></defs><g transform="translate(0.06)"><path class="a" d="M127.964,319.83a.756.756,0,0,1,.387.631.744.744,0,0,1-.725.725.915.915,0,0,1-.387-.1,9.1,9.1,0,0,0-4.6-1.356,7.44,7.44,0,0,0-2.81.485,5.952,5.952,0,0,0-2.326,1.551,4.572,4.572,0,0,0-1.259,2.374,4.069,4.069,0,0,0,.387,2.615,4.761,4.761,0,0,0,2.325,2.085,14.543,14.543,0,0,0,3.295,1.067,8.42,8.42,0,0,1,1.067.241,4.319,4.319,0,0,1,.533.1,4.6,4.6,0,0,1,1.067.338,7.811,7.811,0,0,1,2.612,1.323,6.535,6.535,0,0,1,1.89,2.521,6.809,6.809,0,0,1,.436,3.1,7.038,7.038,0,0,1-2.908,5.181,9.025,9.025,0,0,1-5.669,1.743,9.32,9.32,0,0,1-6.589-3.005.713.713,0,0,1,.533-1.219.778.778,0,0,1,.533.241,7.873,7.873,0,0,0,5.587,2.521,7.16,7.16,0,0,0,4.7-1.454,5.626,5.626,0,0,0,2.374-4.118,4.739,4.739,0,0,0-.338-2.472,5.248,5.248,0,0,0-1.454-1.938,12.577,12.577,0,0,0-4.651-1.695,14.558,14.558,0,0,1-3.633-1.164,6.4,6.4,0,0,1-3.005-2.713,5.239,5.239,0,0,1-.485-3.538,5.953,5.953,0,0,1,1.6-3.148,7.763,7.763,0,0,1,2.859-1.89,9.32,9.32,0,0,1,3.353-.582A10.207,10.207,0,0,1,127.964,319.83Z" transform="translate(-83.822 -249.904)"/><path class="a" d="M197.778,329.08l-.1.631H176.642a11.744,11.744,0,0,0,.146,2.277,12.936,12.936,0,0,0,2.326,5.958,10.973,10.973,0,0,0,5.038,3.779,10.009,10.009,0,0,0,10.9-3.048.692.692,0,0,1,.582-.3.744.744,0,0,1,.725.725.61.61,0,0,1-.2.485,11.076,11.076,0,0,1-5.718,3.731,11.6,11.6,0,0,1-12.5-4.553,13.922,13.922,0,0,1-2.615-6.589,13.534,13.534,0,0,1,2.325-10.177,12.707,12.707,0,0,1,3.962-3.584,11.768,11.768,0,0,1,5.181-1.454C193.176,316.724,198.748,322.783,197.778,329.08Zm-15.41-9.4a10.015,10.015,0,0,0-3.49,3.2,11.4,11.4,0,0,0-2.085,5.379H196.37A9.077,9.077,0,0,0,194,321.472a9.634,9.634,0,0,0-7.123-3.048,9.845,9.845,0,0,0-4.5,1.256Z" transform="translate(-126.016 -248.98)"/><path class="a" d="M254.147,298.505v5.62h5.087a.728.728,0,0,1,0,1.454h-5.087V325.2a3.77,3.77,0,0,0,3.005,3.633,3.657,3.657,0,0,0,2.374-.241.717.717,0,0,1,.338-.049.744.744,0,0,1,.725.725.509.509,0,0,1-.436.582,5.273,5.273,0,0,1-3.353.338,5.181,5.181,0,0,1-4.1-4.992V305.579h-4.267a.728.728,0,0,1,0-1.454H252.7v-5.62a.744.744,0,0,1,.725-.725.713.713,0,0,1,.719.725Z" transform="translate(-176.476 -235.653)"/><path class="a" d="M302.6,298.5v5.62h5.087a.728.728,0,0,1,0,1.454H302.6V325.2a3.77,3.77,0,0,0,3.005,3.633,3.657,3.657,0,0,0,2.374-.241.716.716,0,0,1,.338-.049.744.744,0,0,1,.725.725.509.509,0,0,1-.436.582,5.273,5.273,0,0,1-3.353.338,5.181,5.181,0,0,1-4.118-4.989V305.578h-4.267a.728.728,0,0,1,0-1.454h4.267V298.5a.744.744,0,0,1,.725-.725.713.713,0,0,1,.738.725Z" transform="translate(-210.145 -235.652)"/><path class="a" d="M357.463,329.1l-.1.631h-21.03a11.718,11.718,0,0,0,.146,2.277,12.935,12.935,0,0,0,2.326,5.958,10.972,10.972,0,0,0,5.038,3.779,10.009,10.009,0,0,0,10.9-3.048.692.692,0,0,1,.582-.3.744.744,0,0,1,.725.725.609.609,0,0,1-.2.485,11.076,11.076,0,0,1-5.712,3.743,11.6,11.6,0,0,1-12.5-4.554,13.925,13.925,0,0,1-2.615-6.589,13.534,13.534,0,0,1,2.326-10.177,12.71,12.71,0,0,1,3.962-3.584,11.767,11.767,0,0,1,5.166-1.457C352.849,316.743,358.42,322.8,357.463,329.1Zm-15.41-9.4a10.015,10.015,0,0,0-3.487,3.2,11.4,11.4,0,0,0-2.085,5.379h19.576a9.076,9.076,0,0,0-2.374-6.784,9.635,9.635,0,0,0-7.123-3.048,9.845,9.845,0,0,0-4.517,1.256Z" transform="translate(-237.043 -248.999)"/><path class="a" d="M432.717,318.951a.725.725,0,0,1,.485.725.744.744,0,0,1-.725.725.61.61,0,0,1-.3-.049,9.719,9.719,0,0,0-3.718-.594,8.534,8.534,0,0,0-5.767,2.713,8.135,8.135,0,0,0-2.423,5.821v15.456a.731.731,0,0,1-1.454,0v-24.7a.728.728,0,0,1,1.454,0v4.267a10.851,10.851,0,0,1,1.405-1.829,9.283,9.283,0,0,1,6.687-3.148h.774A10.17,10.17,0,0,1,432.717,318.951Z" transform="translate(-295.399 -249.945)"/><path class="b" d="M444.545,401.8c-.436-.418.259-1.152.695-.716a.5.5,0,0,1-.695.716Z" transform="translate(-313.194 -307.38)"/><path class="b" d="M462.1,351.495v15.544a.3.3,0,1,1-.61,0v-1.966a6.091,6.091,0,0,1-.609.814,4.417,4.417,0,0,1-2.661,1.429,4.895,4.895,0,0,1-3.834-1.033,5.2,5.2,0,0,1-1.966-3.417,5.626,5.626,0,0,1,.954-4.173,4.761,4.761,0,0,1,3.755-2.085h.238a4.682,4.682,0,0,1,4.112,2.438v-7.552a.3.3,0,1,1,.61,0Zm-4.928,5.733a4.263,4.263,0,0,0-3.3,1.829,5.071,5.071,0,0,0-.853,3.734,4.782,4.782,0,0,0,1.768,3.048,4.45,4.45,0,0,0,3.353.914,3.853,3.853,0,0,0,2.326-1.253,3.532,3.532,0,0,0,1.033-2.383v-1.847a4.117,4.117,0,0,0-1.311-2.941,3.981,3.981,0,0,0-2.819-1.113Z" transform="translate(-318.716 -272.785)"/><path class="b" d="M498.994,373.332l-.04.259h-8.622a4.82,4.82,0,0,0,.061.933,5.309,5.309,0,0,0,.954,2.438,4.5,4.5,0,0,0,2.066,1.548,4.1,4.1,0,0,0,4.468-1.253.283.283,0,0,1,.238-.119.3.3,0,0,1,.3.3.255.255,0,0,1-.079.2A4.538,4.538,0,0,1,496,379.166a4.758,4.758,0,0,1-5.123-1.868,5.709,5.709,0,0,1-1.073-2.7,5.544,5.544,0,0,1,.954-4.172,5.2,5.2,0,0,1,1.627-1.469,4.823,4.823,0,0,1,2.134-.61A4.492,4.492,0,0,1,498.994,373.332Zm-6.315-3.852a4.1,4.1,0,0,0-1.43,1.311,4.676,4.676,0,0,0-.853,2.2h8.025a3.721,3.721,0,0,0-.972-2.78,3.962,3.962,0,0,0-2.92-1.253,4.031,4.031,0,0,0-1.853.518Z" transform="translate(-344.699 -284.71)"/><path class="c" d="M39.143,123q3.023,0,3.023,3.935v.637a12.927,12.927,0,0,1-2.472,8.061q0,1.725-6.827,8.778a66,66,0,0,1-6.535,5.072,11.146,11.146,0,0,0-2.341,5.559q0,1.463,14.5,2.536h2.6q2.743,0,7.738-2.243a1.85,1.85,0,0,1,1.039-.229q2.764,0,2.764,1.984,0,2.112-9.851,4.194a19.475,19.475,0,0,1-2.341.131q-3.642,0-11.542-.78a1.668,1.668,0,0,0-.2.034v-.326q0,.61,2.667,5.267a81.965,81.965,0,0,1,3.087,13.264v.914l.3,1.524h.2l-.357-.78q.259,4.194.259,6.861v.78q0,4.419-2.828,13.557A12.006,12.006,0,0,1,25.27,208.1a6.628,6.628,0,0,0-1.106.131q-6.242,0-9.1-12.094a51.894,51.894,0,0,1-.963-6.669V188.3a15.34,15.34,0,0,1,.521-3.545,8.623,8.623,0,0,1-.131-1.4v-.39q0-5.852,3.048-22.042A52.035,52.035,0,0,0,19.451,153v-.064c0,.216,0,.326.034.326a14.475,14.475,0,0,1-4.063,1.009h-.259q-.552,0-1.463-1.2,0-1.789,3.8-3.087,3.77-1.524,4.648-3.575a85.148,85.148,0,0,1,8.939-17.3Q34.852,123,38.2,123ZM22.075,159.739q-.683,0-3.048,20.676a21.455,21.455,0,0,1-.39,4.877q0-.78.2-.78l-.2,2.4v.61q0,.61.229,2.764h-.229q0,2.048,2.4,9.787,2.112,4.032,2.959,4.063h.488q1.463,0,4-4.617a32.942,32.942,0,0,0,1.722-8.159q0,.747-.131.747a4.267,4.267,0,0,1,.131-1.4q.131-3.542.131-4.617t-.131-4.746a4.267,4.267,0,0,1-.131-1.4h.034a50.532,50.532,0,0,0-2.048-10.469q-3.38-8.354-6.08-9.817c-.006.04.037.061.091.061Zm15.83-32.429a19,19,0,0,0-3.935,5.462q-6.08,9.884-6.08,11.085a.771.771,0,0,0-.424-.064,31.842,31.842,0,0,0,6.312-6.437q4.029-5.428,4.029-9.915Q37.808,127.246,37.906,127.31Z" transform="translate(-13.76 -114.143)"/><path class="c" d="M101.839,225.57q5.233,0,6.861,3.868a7.83,7.83,0,0,1,.585,2.926,17.341,17.341,0,0,1-.521,4q0,.39.61.39h1.951q10.177,0,22.432-9.363a5.6,5.6,0,0,1,2.795-1.039H137a2.044,2.044,0,0,1,1.268,1.887q-.165,1.628-5.69,5.2a42.3,42.3,0,0,1-23.773,7.4,10.038,10.038,0,0,0-1.365-.131q-.652,0-2.21,2.4Q101.071,248.13,96,248.13h-1.17q-4.422,0-6.111-5.038a11.886,11.886,0,0,1-.162-2.015v-.649q0-8.193,8.519-13.883A15.009,15.009,0,0,1,101.839,225.57ZM92.51,240.5q0,2.828,2.133,3.74a2.311,2.311,0,0,0,1.073.2q3.249,0,6.535-4.572l.064-.39a24.8,24.8,0,0,0-2.959-1.56,8.848,8.848,0,0,1-3.8-5.233l.229.131h-.162q-.942.424-2.862,5.462.012.07-.247,2.216Zm7.543-8.257q0,1.56,2.7,3.048a3.456,3.456,0,0,0,1.429.552h.131a21.991,21.991,0,0,0,.61-3.283q0-2.892-2.277-2.892-2.594.253-2.594,2.563Z" transform="translate(-65.804 -185.451)"/><path class="c" d="M212.043,225.57q5.233,0,6.861,3.868a7.83,7.83,0,0,1,.585,2.926,17.342,17.342,0,0,1-.521,4q0,.39.61.39h1.951q10.177,0,22.432-9.363a5.6,5.6,0,0,1,2.795-1.039h.454a2.044,2.044,0,0,1,1.268,1.887q-.162,1.628-5.69,5.2a42.337,42.337,0,0,1-23.8,7.412,10.031,10.031,0,0,0-1.365-.131q-.652,0-2.21,2.4-4.163,5.008-9.232,5.008h-1.17q-4.422,0-6.111-5.038a11.888,11.888,0,0,1-.161-2.015v-.649q0-8.193,8.519-13.883A15.12,15.12,0,0,1,212.043,225.57ZM202.714,240.5q0,2.828,2.133,3.74a2.311,2.311,0,0,0,1.073.2q3.249,0,6.535-4.572l.064-.39a24.805,24.805,0,0,0-2.959-1.56,8.848,8.848,0,0,1-3.8-5.233l.229.131h-.155q-.942.424-2.862,5.462.006.07-.253,2.216Zm7.543-8.257q0,1.56,2.7,3.048a3.456,3.456,0,0,0,1.429.552h.131a21.977,21.977,0,0,0,.61-3.283q0-2.892-2.277-2.892-2.594.253-2.594,2.563Z" transform="translate(-142.403 -185.451)"/><path class="c" d="M355.816,93.94q3.935,0,3.935,4.032.128,0,.131,1.106-.521,6.705-.914,9.524,0-.747.131-.747,0,6.471-7.62,28.445-2.926,5.626-2.926,6.568v.229q2.079,5.462,10.241,5.593h1.17q12.874,0,23.8-10.987,1.625-2.926,3.121-2.926h.131q1.4,0,2.133,1.917-.914,3.609-11.085,11.054Q367.7,152.4,362.034,152.4q-.61,0-3.478.259-2.6,0-8.421-2.015a17.714,17.714,0,0,1-4.13-3.575q.521.229-.424,1.332a20.735,20.735,0,0,1-12.261,8.126,9.705,9.705,0,0,1-4.422.683q-9.265.2-12.5-8.909a5.218,5.218,0,0,1-.162-1.268V145.6q.131-5.885,6.471-12.386,4.16-3.444,11.475-4.291l3.316.162q2.112.552,6.178,1.658-3.154,2.7-2.6-.162,0-.128-.131-1.463a58.7,58.7,0,0,1,4.1-19.735l4.063-8.485a19.6,19.6,0,0,1,4.877-6.632A7.348,7.348,0,0,1,355.816,93.94ZM320.607,145.6q0,5.526,5.885,7.671a13.622,13.622,0,0,0,1.984.229q7.671-.488,13.816-8.1a8,8,0,0,0,1.009-2.536,55.4,55.4,0,0,1-1.951-8.647q0-.03-2.472-.326a5.291,5.291,0,0,0-3.088-.878q-10.176,0-14.825,10.11A14.025,14.025,0,0,0,320.607,145.6Zm25.1-21.131q0-.747.131-.747,0,1.2-.39,6.275.683,7.12.747,7.12.259,0,.814-1.722,2.7-5.181,7.738-25.3l.649-11.118q-.131-.424.162-.424-1.14.326-6.013,11.216a59.912,59.912,0,0,0-3.837,14.694Z" transform="translate(-224.091 -93.94)"/></g></svg>