<svg xmlns="http://www.w3.org/2000/svg" width="18.876" height="13.259" viewBox="0 0 18.876 13.259"><defs><style>.a{fill:#aab818;}</style></defs><g transform="translate(0 0)"><g transform="translate(0)"><path class="a" d="M76.071,136.038a.55.55,0,0,0-.414-.188H72.991v-2.258a.55.55,0,0,0-.55-.55H61.083a.55.55,0,0,0-.55.55v10.629a.55.55,0,0,0,.55.55h1.148a2.08,2.08,0,0,0,4.012,0H73.58a2.08,2.08,0,0,0,4.012,0h1.267a.55.55,0,0,0,.55-.55v-4.166ZM64.237,145.2a.98.98,0,1,1,.98-.98A.981.981,0,0,1,64.237,145.2Zm2.006-1.53a2.08,2.08,0,0,0-4.012,0h-.6v-9.529H71.891v9.529Zm9.343,1.53a.98.98,0,1,1,.98-.98A.981.981,0,0,1,75.586,145.2Zm2.723-1.53h-.717a2.08,2.08,0,0,0-4.012,0h-.59V136.95h2.417l2.9,3.313v3.409Z" transform="translate(-60.533 -133.043)"/></g></g></svg>